<svg width="70" height="60" viewBox="0 0 70 60" fill="none" xmlns="http://www.w3.org/2000/svg">
<path d="M69.3817 26.4988C70.6643 11.8063 57.0855 8.26954 48.7797 8.27026C47.7811 8.27035 46.9288 8.95383 46.6393 9.90946C46.166 11.4714 47.3638 13.0466 48.9912 13.169C56.3256 13.7207 66.2155 16.8409 64.3912 26.4988C62.6208 35.8715 54.4975 37.6381 48.7464 37.2404C47.1618 37.1308 45.6766 38.3108 45.6766 39.8992C45.6766 41.0826 46.5134 42.1096 47.6903 42.2331C55.4491 43.0471 68.1255 40.8881 69.3817 26.4988Z" fill="url(#paint0_linear_1050_459)"/>
<path d="M48.0796 3.09408V55.9728C48.0796 57.6833 46.693 59.0698 44.9826 59.0698H3.23492C1.52449 59.0698 0.137911 57.6833 0.137912 55.9728L0.137951 3.09407C0.137952 1.38365 1.52453 -0.00292969 3.23496 -0.00292969H44.9826C46.693 -0.00292969 48.0796 1.38365 48.0796 3.09408Z" fill="url(#paint1_linear_1050_459)"/>
<defs>
<linearGradient id="paint0_linear_1050_459" x1="77.5126" y1="15.4223" x2="45.6766" y2="16.121" gradientUnits="userSpaceOnUse">
<stop stop-color="white"/>
<stop offset="1" stop-color="#CCCCCC"/>
</linearGradient>
<linearGradient id="paint1_linear_1050_459" x1="24.1088" y1="-17.8359" x2="24.1088" y2="77.3883" gradientUnits="userSpaceOnUse">
<stop stop-color="white"/>
<stop offset="1" stop-color="#CCCCCC"/>
</linearGradient>
</defs>
</svg>
