<svg width="136" height="188" viewBox="0 0 136 188" fill="none" xmlns="http://www.w3.org/2000/svg">
<rect x="133.137" y="67.0042" width="126.405" height="10.3543" transform="rotate(117.371 133.137 67.0042)" fill="#E0E0E0"/>
<rect x="43.8335" y="171.446" width="58.4432" height="15.6235" rx="3.09701" fill="#30235B"/>
<rect x="126.449" y="68.0188" width="67.8967" height="10.3543" transform="rotate(-139.766 126.449 68.0188)" fill="#E0E0E0"/>
<rect x="75.7192" y="19.6533" width="20.0325" height="3.56661" transform="rotate(162.128 75.7192 19.6533)" fill="#E0E0E0"/>
<circle cx="128.767" cy="63.8494" r="7.23339" fill="#30235B"/>
<path d="M71.1957 14.4266L81.3295 16.3079L74.6334 24.1433L71.1957 14.4266Z" fill="#30235B"/>
<path d="M39.6338 11.0497C41.968 5.18659 48.6132 2.32581 54.4763 4.65997C60.3394 6.99414 63.2001 13.6393 60.866 19.5024L54.4118 35.7145L33.1796 27.2617L39.6338 11.0497Z" fill="#30235B"/>
<path d="M46.3661 27.591C22.8025 18.3386 7.12542 39.0651 1.5898 50.0418C17.9505 73.3678 47.9206 75.764 61.503 74.5894C66.2755 62.7784 69.9296 36.8433 46.3661 27.591Z" fill="#30235B"/>
</svg>
