<svg width="58" height="33" viewBox="0 0 58 33" fill="none" xmlns="http://www.w3.org/2000/svg">
<path fill-rule="evenodd" clip-rule="evenodd" d="M33.4585 8.04957C43.8038 -1.50744 53.6152 0.126464 57.2277 2.13804C59.3181 7.67339 57.2277 23.8487 45.6897 25.2827C36.4593 26.4299 33.2959 19.2937 32.868 15.5821C31.1135 14.165 29.9482 15.3865 29.5848 16.1745C29.8882 26.4895 21.5957 33.4674 12.6965 31.8493C5.57703 30.5549 2.47772 23.4406 1.81799 20.0453H0.345947V14.0097C9.61667 4.93209 22.4247 7.15711 27.6699 9.40431C29.0493 8.32053 32.1037 8.04958 33.4585 8.04957ZM53.76 5.11208C46.6074 2.90124 40.0717 6.68926 37.114 9.32214C31.7359 14.4572 38.7996 27.0376 48.669 21.7771C54.579 18.6271 55.0334 8.87809 53.76 5.11208ZM13.3146 11.8433C17.2205 10.5722 25.1847 9.72171 25.7949 16.4888C26.5576 24.9476 18.8615 31.1878 12.136 27.8597C7.26646 25.45 5.27177 20.5102 5.27177 17.3901C5.27177 14.8941 10.6337 12.6522 13.3146 11.8433Z" fill="#111111"/>
</svg>
