<svg width="90" height="165" viewBox="0 0 90 165" fill="none" xmlns="http://www.w3.org/2000/svg">
<path d="M40.2514 142.133C34.3098 161.319 26.1196 164.671 22.7672 163.949C-12.5193 140.337 2.63309 116.141 14.6201 106.995L45.8649 42.6637C41.3415 39.1264 36.3011 28.0595 36.818 21.0805C37.2316 15.4973 41.0399 15.3104 42.8924 15.9148C43.4093 10.1295 47.5881 10.3137 49.6129 11.1289C51.3706 4.82197 56.4627 6.17473 58.789 7.63948C59.0992 -1.04551 65.1218 0.143543 68.0943 1.82369L73.312 15.9148C75.4438 16.2107 80.388 16.8954 83.1113 17.2668C86.5153 17.7309 90.8477 18.3498 88.6815 23.1464C86.9485 26.9837 78.16 40.115 73.9823 46.201C65.2143 70.1839 46.193 122.946 40.2514 142.133Z" fill="url(#paint0_linear_1050_433)"/>
<defs>
<linearGradient id="paint0_linear_1050_433" x1="14.5071" y1="-9.4543" x2="95.8927" y2="85.7937" gradientUnits="userSpaceOnUse">
<stop stop-color="#FFEFE0"/>
<stop offset="1" stop-color="#FFBE99"/>
</linearGradient>
</defs>
</svg>
