<svg width="227" height="59" viewBox="0 0 227 59" fill="none" xmlns="http://www.w3.org/2000/svg">
<path d="M1.41271 33.5848C7.41201 60.3209 43.0385 60.3753 60.1019 57.0605L191.628 38.0583C193.323 39.5307 197.384 43.4134 200.061 47.1646C202.738 50.9157 205.192 48.2787 206.084 46.4913C209.939 50.6677 212.777 48.6803 213.714 47.1646C217.034 51.3441 219.827 49.885 220.809 48.633C225.413 52.0598 226.576 49.0819 226.581 47.1646C220.299 33.8622 209.029 20.529 204.18 15.5252L171.385 18.5275L64.8296 7.66377C44.6145 -6.51943 -6.08642 0.164607 1.41271 33.5848Z" fill="url(#paint0_linear_1050_432)"/>
<defs>
<linearGradient id="paint0_linear_1050_432" x1="113.622" y1="-35.3649" x2="113.622" y2="48.5013" gradientUnits="userSpaceOnUse">
<stop offset="0.0677966" stop-color="#FFEFE0"/>
<stop offset="1" stop-color="#FFBE99"/>
</linearGradient>
</defs>
</svg>
